<svg xmlns="http://www.w3.org/2000/svg" viewBox="0 0 240 300" width="240" height="300">
  <!-- northing FULL LOCKUP — color version -->
  <!-- Rings: warm coral #C8714C | Drive lines: deep rust #A85A38 | Wordmark: warm near-black -->
  <circle cx="120" cy="120" r="8" fill="none" stroke="#C8714C" stroke-width="1.5"/>
  <path d="M 105.3 109.7 A 18 18 0 1 1 102.1 118.4" fill="none" stroke="#C8714C" stroke-width="2" stroke-linecap="round"/>
  <path d="M 148.8 111.7 A 30 30 0 1 1 141.6 99.2" fill="none" stroke="#C8714C" stroke-width="5" stroke-linecap="round"/>
  <path d="M 89.8 149.2 A 42 42 0 1 1 109.8 160.7" fill="none" stroke="#C8714C" stroke-width="2.5" stroke-linecap="round"/>
  <path d="M 142.8 71.1 A 54 54 0 1 1 115.3 66.2" fill="none" stroke="#C8714C" stroke-width="6.5" stroke-linecap="round"/>
  <path d="M 154.0 176.6 A 66 66 0 1 1 176.6 154.0" fill="none" stroke="#C8714C" stroke-width="3.5" stroke-linecap="round"/>
  <path d="M 42.7 109.8 A 78 78 0 1 1 50.8 156.0" fill="none" stroke="#C8714C" stroke-width="5" stroke-linecap="round"/>
  <path d="M 186.4 62.3 A 88 88 0 1 1 136.8 33.6" fill="none" stroke="#C8714C" stroke-width="8" stroke-linecap="round"/>
  <line x1="20" y1="120" x2="220" y2="120" stroke="#A85A38" stroke-width="7" stroke-linecap="round"/>
  <line x1="70" y1="96" x2="170" y2="96" stroke="#A85A38" stroke-width="3" stroke-linecap="round"/>
  <text x="120" y="272" text-anchor="middle"
        font-family="Fraunces, 'Space Grotesk', Georgia, serif"
        font-size="30" font-weight="500" letter-spacing="2"
        fill="#3A2B22">NortHing</text>
</svg>
